<svg xmlns="http://www.w3.org/2000/svg" viewBox="0 0 64 64">
	<defs>
		<linearGradient id="bg" x1="0" y1="0" x2="1" y2="1">
			<stop offset="0%" stop-color="#0f766e" />
			<stop offset="100%" stop-color="#0ea5e9" />
		</linearGradient>
		<linearGradient id="book" x1="0" y1="0" x2="0" y2="1">
			<stop offset="0%" stop-color="#ffffff" />
			<stop offset="100%" stop-color="#e2e8f0" />
		</linearGradient>
	</defs>

	<rect x="4" y="4" width="56" height="56" rx="14" fill="url(#bg)" />
	<path d="M32 16c-6 0-10 2-14 5v24c4-3 8-5 14-5s10 2 14 5V21c-4-3-8-5-14-5z" fill="url(#book)" />
	<path d="M32 16v24" stroke="#0f766e" stroke-width="2.8" stroke-linecap="round" />
	<path d="M18 25c3-2 7-3.2 12-3.2M18 31c3-2 7-3.2 12-3.2M18 37c3-2 7-3.2 12-3.2" stroke="#94a3b8" stroke-width="1.8" stroke-linecap="round" />
	<path d="M46 25c-3-2-7-3.2-12-3.2M46 31c-3-2-7-3.2-12-3.2M46 37c-3-2-7-3.2-12-3.2" stroke="#94a3b8" stroke-width="1.8" stroke-linecap="round" />
	<circle cx="48" cy="18" r="5" fill="#f97316" />
	<path d="M46.1 18.2l1.4 1.4 2.7-2.9" fill="none" stroke="#fff" stroke-width="1.7" stroke-linecap="round" stroke-linejoin="round" />
</svg>